<svg width="72" height="71" viewBox="0 0 72 71" fill="none" xmlns="http://www.w3.org/2000/svg">
<path fill-rule="evenodd" clip-rule="evenodd" d="M36.5752 17.6027C35.7228 13.2371 35.8171 9.09939 36.6672 5.93556C37.514 2.78443 39.1315 0.537222 41.3727 0.0828644C43.6139 -0.371493 45.9524 1.07372 47.9185 3.65461C49.8924 6.24591 51.534 10.0318 52.3864 14.3973C53.2389 18.7629 53.331 23.3002 52.4808 26.464C51.6341 29.6151 49.7221 31.5096 47.4809 31.964C45.2397 32.4183 43.0093 30.9263 41.0432 28.3454C39.0692 25.7541 37.4277 21.9682 36.5752 17.6027ZM41.9196 2.88364C41.2788 3.01354 40.1285 3.86852 39.3704 6.68968C38.6577 9.34198 38.538 13.0204 39.324 17.0454C40.11 21.0704 41.6024 24.4221 43.2572 26.5944C45.0174 28.9051 45.4808 28.964 46.4808 28.964C47.1216 28.8341 49.2227 28.7852 49.9808 25.964C50.6935 23.3117 50.4236 18.9796 49.6377 14.9546C48.8517 10.9296 47.3593 7.57792 45.7045 5.40559C43.9443 3.09495 42.5603 2.75375 41.9196 2.88364Z" fill="white"/>
<path fill-rule="evenodd" clip-rule="evenodd" d="M21.5015 7.61302C20.7035 8.69634 20.4728 10.846 22.0622 14.1167C23.59 17.2607 26.5385 20.782 30.6261 23.793C34.7138 26.804 38.951 28.5757 42.4067 29.1026C46.0015 29.6507 47.9861 28.7929 48.7841 27.7096C49.5821 26.6262 49.8128 24.4765 48.2234 21.2059C46.6956 18.0618 43.7471 14.5405 39.6595 11.5295C35.5718 8.51856 31.3346 6.74684 27.8789 6.21998C24.2841 5.67191 22.2995 6.5297 21.5015 7.61302ZM28.9062 26.128C24.5182 22.8958 21.2255 19.03 19.4538 15.3842C17.6868 11.7479 17.4111 8.27635 19.1666 5.8931C20.9221 3.50985 24.3193 2.74377 28.316 3.35311C32.3231 3.96404 36.9914 5.96242 41.3794 9.19462C45.7674 12.4268 49.0601 16.2926 50.8318 19.9384C52.5988 23.5747 52.8745 27.0462 51.119 29.4295C49.3635 31.8127 45.9663 32.5788 41.9696 31.9695C37.9625 31.3585 33.2942 29.3601 28.9062 26.128Z" fill="white"/>
<path fill-rule="evenodd" clip-rule="evenodd" d="M49.3732 30.8758L49.6251 31.1861C46.911 33.5747 42.3671 35.4888 37.0757 36.2148C32.5975 36.8292 28.409 36.4797 25.2546 35.4088C22.1129 34.3422 19.9354 32.5346 19.6139 30.192C19.4245 28.8111 19.9087 27.4326 20.8945 26.1549C21.8796 24.8782 23.3731 23.6909 25.232 22.6791L25.3715 22.6031L25.477 22.7219C26.0577 23.3749 26.7285 24.0268 27.4706 24.6657C30.5743 27.3378 34.9049 29.7644 39.045 31.0811C41.1146 31.7393 43.1286 32.1175 44.9125 32.1143C46.6976 32.1111 48.2358 31.7261 49.3732 30.8758Z" fill="#E5E5E5"/>
<path fill-rule="evenodd" clip-rule="evenodd" d="M49.625 31.1847L49.619 31.19L49.6127 31.1948C48.3826 32.1144 46.7492 32.5096 44.9132 32.5129C43.0759 32.5163 41.0193 32.1274 38.9237 31.4609C34.7333 30.1282 30.3549 27.6755 27.2095 24.9675C26.4561 24.3188 25.7723 23.6545 25.1781 22.9863L25.0107 22.7981L25.2319 22.6777C25.6169 22.4682 26.0178 22.266 26.4334 22.072C26.8729 21.8668 27.3288 21.6708 27.7999 21.4848C29.8798 20.6636 32.2558 20.0374 34.8082 19.6872C39.2864 19.0728 43.475 19.4223 46.6293 20.4932C49.771 21.5598 51.6594 23.1574 51.9808 25.5C52.2437 27.4164 51.5008 29.5339 49.625 31.1847ZM49.2315 26.1269C49.1528 25.5534 48.437 24.3459 45.6434 23.3974C43.0284 22.5096 39.3339 22.162 35.2251 22.7257C33.5716 22.9526 32.0147 23.3049 30.5935 23.7497C32.8622 25.4428 35.6647 26.9992 38.4944 28.0656C40.6551 28.8799 42.691 29.3539 44.3885 29.4339C46.0448 29.512 46.879 29.4105 47.4808 29C49.2315 27.8056 49.2935 26.5792 49.2315 26.1269Z" fill="white"/>
<path d="M66.6658 55.5736V64.9655C66.6658 65.6018 66.8095 66.0637 67.0969 66.3511C67.4048 66.618 67.918 66.7514 68.6365 66.7514H70.792V69.6768H68.0206C66.4399 69.6768 65.2288 69.3073 64.3871 68.5682C63.5454 67.8292 63.1246 66.6283 63.1246 64.9655V55.5736H61.123V52.7099H63.1246V48.4913H66.6658V52.7099H70.792V55.5736H66.6658Z" fill="white"/>
<path d="M56.2371 50.462C55.6008 50.462 55.067 50.2464 54.6359 49.8153C54.2048 49.3842 53.9893 48.8505 53.9893 48.2141C53.9893 47.5777 54.2048 47.044 54.6359 46.6129C55.067 46.1818 55.6008 45.9662 56.2371 45.9662C56.853 45.9662 57.3765 46.1818 57.8076 46.6129C58.2387 47.044 58.4542 47.5777 58.4542 48.2141C58.4542 48.8505 58.2387 49.3842 57.8076 49.8153C57.3765 50.2464 56.853 50.462 56.2371 50.462ZM57.9615 52.7099V69.6767H54.4512V52.7099H57.9615Z" fill="white"/>
<path d="M43.0143 52.4327C44.3486 52.4327 45.5393 52.7098 46.5862 53.2641C47.6537 53.8184 48.4851 54.6395 49.0805 55.7275C49.6758 56.8156 49.9735 58.1294 49.9735 59.669V69.6767H46.4939V60.1925C46.4939 58.6734 46.1141 57.5135 45.3545 56.7129C44.595 55.8918 43.5583 55.4812 42.2444 55.4812C40.9306 55.4812 39.8837 55.8918 39.1036 56.7129C38.344 57.5135 37.9642 58.6734 37.9642 60.1925V69.6767H34.4539V52.7098H37.9642V54.6498C38.539 53.9518 39.2678 53.4078 40.1505 53.0178C41.0538 52.6277 42.0084 52.4327 43.0143 52.4327Z" fill="white"/>
<path d="M30.9992 60.7776C30.9992 61.414 30.9581 61.9888 30.876 62.502H17.9122C18.0149 63.8569 18.5178 64.9449 19.4211 65.766C20.3243 66.5872 21.4329 66.9977 22.7467 66.9977C24.6353 66.9977 25.9697 66.2074 26.7498 64.6267H30.5373C30.0241 66.1868 29.09 67.4699 27.7352 68.4758C26.4008 69.4612 24.738 69.9538 22.7467 69.9538C21.125 69.9538 19.6674 69.5946 18.3741 68.8761C17.1014 68.1371 16.0955 67.1106 15.3564 65.7968C14.6379 64.4624 14.2787 62.9228 14.2787 61.1779C14.2787 59.4329 14.6277 57.9036 15.3256 56.5897C16.0441 55.2554 17.0398 54.229 18.3126 53.5105C19.6058 52.792 21.0839 52.4327 22.7467 52.4327C24.3479 52.4327 25.7747 52.7817 27.0269 53.4797C28.2792 54.1776 29.2543 55.163 29.9522 56.4358C30.6502 57.688 30.9992 59.1353 30.9992 60.7776ZM27.3349 59.669C27.3143 58.3757 26.8524 57.339 25.9492 56.5589C25.0459 55.7789 23.9271 55.3888 22.5928 55.3888C21.3816 55.3888 20.3449 55.7789 19.4827 56.5589C18.6205 57.3185 18.1073 58.3552 17.943 59.669H27.3349Z" fill="white"/>
<path d="M4.06466 66.8131H11.7629V69.6768H0V66.8131L7.72901 55.5737H0V52.71H11.7629V55.5737L4.06466 66.8131Z" fill="white"/>
</svg>
