<svg width="72" height="68" viewBox="0 0 72 68" fill="none" xmlns="http://www.w3.org/2000/svg">
<path fill-rule="evenodd" clip-rule="evenodd" d="M36.5752 17.6027C35.7228 13.2371 35.8171 9.09939 36.6672 5.93556C37.514 2.78443 39.1315 0.537222 41.3727 0.0828644C43.6139 -0.371493 45.9524 1.07372 47.9185 3.65461C49.8924 6.24591 51.534 10.0318 52.3864 14.3973C53.2389 18.7629 53.331 23.3002 52.4808 26.464C51.6341 29.6151 49.7221 31.5096 47.4809 31.964C45.2397 32.4183 43.0093 30.9263 41.0432 28.3454C39.0692 25.7541 37.4277 21.9682 36.5752 17.6027ZM41.9196 2.88364C41.2788 3.01354 40.1285 3.86852 39.3704 6.68968C38.6577 9.34198 38.538 13.0204 39.324 17.0454C40.11 21.0704 41.6024 24.4221 43.2572 26.5944C45.0174 28.9051 45.4808 28.964 46.4808 28.964C47.1216 28.8341 49.2227 28.7852 49.9808 25.964C50.6935 23.3117 50.4236 18.9796 49.6377 14.9546C48.8517 10.9296 47.3593 7.57792 45.7045 5.40559C43.9443 3.09495 42.5603 2.75375 41.9196 2.88364Z" fill="white"/>
<path fill-rule="evenodd" clip-rule="evenodd" d="M21.5015 7.61302C20.7035 8.69634 20.4728 10.846 22.0622 14.1167C23.59 17.2607 26.5385 20.782 30.6261 23.793C34.7138 26.804 38.951 28.5757 42.4067 29.1026C46.0015 29.6507 47.9861 28.7929 48.7841 27.7096C49.5821 26.6262 49.8128 24.4765 48.2234 21.2059C46.6956 18.0618 43.7471 14.5405 39.6595 11.5295C35.5718 8.51856 31.3346 6.74684 27.8789 6.21998C24.2841 5.67191 22.2995 6.5297 21.5015 7.61302ZM28.9062 26.128C24.5182 22.8958 21.2255 19.03 19.4538 15.3842C17.6868 11.7479 17.4111 8.27635 19.1666 5.8931C20.9221 3.50985 24.3193 2.74377 28.316 3.35311C32.3231 3.96404 36.9914 5.96242 41.3794 9.19462C45.7674 12.4268 49.0601 16.2926 50.8318 19.9384C52.5988 23.5747 52.8745 27.0462 51.119 29.4295C49.3635 31.8127 45.9663 32.5788 41.9696 31.9695C37.9625 31.3585 33.2942 29.3601 28.9062 26.128Z" fill="white"/>
<path fill-rule="evenodd" clip-rule="evenodd" d="M49.3732 30.8758L49.6251 31.1861C46.911 33.5747 42.3671 35.4888 37.0757 36.2148C32.5975 36.8292 28.409 36.4797 25.2546 35.4088C22.1129 34.3422 19.9354 32.5346 19.6139 30.192C19.4245 28.8111 19.9087 27.4326 20.8945 26.1549C21.8796 24.8782 23.3731 23.6909 25.232 22.6791L25.3715 22.6031L25.477 22.7219C26.0577 23.3749 26.7285 24.0268 27.4706 24.6657C30.5743 27.3378 34.9049 29.7644 39.045 31.0811C41.1146 31.7393 43.1286 32.1175 44.9125 32.1143C46.6976 32.1111 48.2358 31.7261 49.3732 30.8758Z" fill="#FFA800"/>
<path fill-rule="evenodd" clip-rule="evenodd" d="M49.625 31.1847L49.619 31.19L49.6127 31.1948C48.3826 32.1144 46.7492 32.5097 44.9132 32.513C43.0759 32.5163 41.0193 32.1274 38.9237 31.4609C34.7333 30.1283 30.3549 27.6755 27.2095 24.9675C26.4561 24.3188 25.7723 23.6545 25.1781 22.9863L25.0107 22.7981L25.2319 22.6777C25.6169 22.4682 26.0178 22.266 26.4334 22.072C26.8729 21.8669 27.3288 21.6708 27.7999 21.4849C29.8798 20.6636 32.2558 20.0374 34.8082 19.6872C39.2864 19.0728 43.475 19.4223 46.6293 20.4932C49.771 21.5599 51.6594 23.1574 51.9808 25.5C52.2437 27.4164 51.5008 29.5339 49.625 31.1847ZM49.2315 26.1269C49.1528 25.5534 48.437 24.3459 45.6434 23.3974C43.0284 22.5096 39.3339 22.162 35.2251 22.7258C33.5716 22.9526 32.0147 23.3049 30.5935 23.7497C32.8622 25.4428 35.6647 26.9992 38.4944 28.0656C40.6551 28.8799 42.691 29.3539 44.3885 29.4339C46.0448 29.512 46.879 29.4106 47.4808 29C49.2315 27.8056 49.2935 26.5792 49.2315 26.1269Z" fill="white"/>
<path d="M66.6658 52.023V61.4148C66.6658 62.0512 66.8095 62.5131 67.0969 62.8005C67.4048 63.0673 67.918 63.2008 68.6365 63.2008H70.792V66.1261H68.0206C66.4399 66.1261 65.2288 65.7566 64.3871 65.0176C63.5454 64.2785 63.1246 63.0776 63.1246 61.4148V52.023H61.123V49.1592H63.1246V44.9406H66.6658V49.1592H70.792V52.023H66.6658Z" fill="white"/>
<path d="M56.2371 46.9113C55.6008 46.9113 55.067 46.6957 54.6359 46.2646C54.2048 45.8335 53.9893 45.2998 53.9893 44.6634C53.9893 44.027 54.2048 43.4933 54.6359 43.0622C55.067 42.6311 55.6008 42.4155 56.2371 42.4155C56.853 42.4155 57.3765 42.6311 57.8076 43.0622C58.2387 43.4933 58.4542 44.027 58.4542 44.6634C58.4542 45.2998 58.2387 45.8335 57.8076 46.2646C57.3765 46.6957 56.853 46.9113 56.2371 46.9113ZM57.9615 49.1592V66.126H54.4512V49.1592H57.9615Z" fill="white"/>
<path d="M43.0143 48.882C44.3486 48.882 45.5393 49.1592 46.5862 49.7134C47.6537 50.2677 48.4851 51.0888 49.0805 52.1769C49.6758 53.2649 49.9735 54.5787 49.9735 56.1183V66.126H46.4939V56.6418C46.4939 55.1227 46.1141 53.9628 45.3545 53.1622C44.595 52.3411 43.5583 51.9305 42.2444 51.9305C40.9306 51.9305 39.8837 52.3411 39.1036 53.1622C38.344 53.9628 37.9642 55.1227 37.9642 56.6418V66.126H34.4539V49.1592H37.9642V51.0991C38.539 50.4011 39.2678 49.8571 40.1505 49.4671C41.0538 49.077 42.0084 48.882 43.0143 48.882Z" fill="white"/>
<path d="M30.9992 57.2269C30.9992 57.8633 30.9581 58.4381 30.876 58.9513H17.9122C18.0149 60.3062 18.5178 61.3942 19.4211 62.2153C20.3243 63.0365 21.4329 63.447 22.7467 63.447C24.6353 63.447 25.9697 62.6567 26.7498 61.076H30.5373C30.0241 62.6362 29.09 63.9192 27.7352 64.9251C26.4008 65.9105 24.738 66.4031 22.7467 66.4031C21.125 66.4031 19.6674 66.0439 18.3741 65.3254C17.1014 64.5864 16.0955 63.5599 15.3564 62.2461C14.6379 60.9118 14.2787 59.3721 14.2787 57.6272C14.2787 55.8823 14.6277 54.3529 15.3256 53.0391C16.0441 51.7047 17.0398 50.6783 18.3126 49.9598C19.6058 49.2413 21.0839 48.882 22.7467 48.882C24.3479 48.882 25.7747 49.231 27.0269 49.929C28.2792 50.6269 29.2543 51.6123 29.9522 52.8851C30.6502 54.1373 30.9992 55.5846 30.9992 57.2269ZM27.3349 56.1183C27.3143 54.825 26.8524 53.7883 25.9492 53.0083C25.0459 52.2282 23.9271 51.8381 22.5928 51.8381C21.3816 51.8381 20.3449 52.2282 19.4827 53.0083C18.6205 53.7678 18.1073 54.8045 17.943 56.1183H27.3349Z" fill="white"/>
<path d="M4.06466 63.2624H11.7629V66.1261H0V63.2624L7.72901 52.023H0V49.1593H11.7629V52.023L4.06466 63.2624Z" fill="white"/>
</svg>
