<svg width="115" height="37" viewBox="0 0 115 37" fill="none" xmlns="http://www.w3.org/2000/svg">
<path fill-rule="evenodd" clip-rule="evenodd" d="M18.5944 17.6027C17.7419 13.2371 17.8362 9.09939 18.6864 5.93556C19.5331 2.78443 21.1506 0.537222 23.3918 0.0828644C25.6331 -0.371493 27.9716 1.07372 29.9376 3.65461C31.9116 6.24591 33.5531 10.0318 34.4056 14.3973C35.2581 18.7629 35.3502 23.3002 34.5 26.464C33.6532 29.6151 31.7412 31.5096 29.5 31.964C27.2588 32.4183 25.0284 30.9263 23.0624 28.3454C21.0884 25.7541 19.4469 21.9682 18.5944 17.6027ZM23.9388 2.88364C23.298 3.01354 22.1476 3.86852 21.3896 6.68968C20.6769 9.34198 20.5572 13.0204 21.3432 17.0454C22.1291 21.0704 23.6216 24.4221 25.2764 26.5944C27.0366 28.9051 27.5 28.964 28.5 28.964C29.1408 28.8341 31.2419 28.7852 32 25.964C32.7127 23.3117 32.4428 18.9796 31.6568 14.9546C30.8709 10.9296 29.3784 7.57792 27.7236 5.40559C25.9634 3.09495 24.5795 2.75375 23.9388 2.88364Z" fill="#3B3B3B"/>
<path fill-rule="evenodd" clip-rule="evenodd" d="M3.52067 7.61302C2.72269 8.69634 2.49196 10.846 4.08132 14.1167C5.60917 17.2607 8.55764 20.782 12.6453 23.793C16.7329 26.804 20.9702 28.5757 24.4259 29.1026C28.0207 29.6507 30.0053 28.7929 30.8033 27.7096C31.6012 26.6262 31.832 24.4765 30.2426 21.2059C28.7148 18.0618 25.7663 14.5405 21.6786 11.5295C17.591 8.51856 13.3538 6.74684 9.89807 6.21998C6.30325 5.67191 4.31865 6.5297 3.52067 7.61302ZM10.9254 26.128C6.53741 22.8958 3.24465 19.03 1.47298 15.3842C-0.29407 11.7479 -0.569773 8.27635 1.18575 5.8931C2.94126 3.50985 6.33843 2.74377 10.3352 3.35311C14.3423 3.96404 19.0106 5.96242 23.3986 9.19462C27.7865 12.4268 31.0793 16.2926 32.8509 19.9384C34.618 23.5747 34.8937 27.0462 33.1382 29.4295C31.3827 31.8127 27.9855 32.5788 23.9888 31.9695C19.9816 31.3585 15.3133 29.3601 10.9254 26.128Z" fill="#3B3B3B"/>
<path fill-rule="evenodd" clip-rule="evenodd" d="M31.3924 30.8758L31.6442 31.1861C28.9301 33.5747 24.3863 35.4888 19.0949 36.2148C14.6167 36.8292 10.4281 36.4797 7.27376 35.4088C4.13206 34.3422 1.95452 32.5346 1.63311 30.192C1.44364 28.8111 1.92784 27.4326 2.91362 26.1549C3.89873 24.8782 5.3923 23.6909 7.25112 22.6791L7.39064 22.6031L7.4962 22.7219C8.07686 23.3749 8.74763 24.0268 9.48972 24.6657C12.5934 27.3378 16.9241 29.7644 21.0641 31.0811C23.1337 31.7393 25.1478 32.1175 26.9316 32.1143C28.7167 32.1111 30.255 31.7261 31.3924 30.8758Z" fill="#E5E5E5"/>
<path fill-rule="evenodd" clip-rule="evenodd" d="M31.6442 31.1847L31.6382 31.19L31.6318 31.1948C30.4018 32.1144 28.7683 32.5097 26.9323 32.513C25.095 32.5163 23.0385 32.1274 20.9429 31.4609C16.7525 30.1283 12.3741 27.6755 9.22871 24.9675C8.47527 24.3188 7.79142 23.6545 7.19723 22.9863L7.02991 22.7981L7.25107 22.6777C7.63607 22.4682 8.03698 22.266 8.45261 22.072C8.89206 21.8669 9.348 21.6708 9.81904 21.4849C11.899 20.6636 14.275 20.0374 16.8274 19.6872C21.3056 19.0728 25.4942 19.4223 28.6485 20.4932C31.7902 21.5599 33.6785 23.1574 33.9999 25.5C34.2629 27.4164 33.52 29.5339 31.6442 31.1847ZM31.2506 26.1269C31.1719 25.5534 30.4562 24.3459 27.6625 23.3974C25.0476 22.5096 21.3531 22.162 17.2443 22.7258C15.5908 22.9526 14.0339 23.3049 12.6127 23.7497C14.8814 25.4428 17.6839 26.9992 20.5136 28.0656C22.6743 28.8799 24.7101 29.3539 26.4077 29.4339C28.064 29.512 28.8982 29.4106 29.4999 29C31.2506 27.8056 31.3127 26.5792 31.2506 26.1269Z" fill="#3B3B3B"/>
<path d="M109.731 16.3563V25.7482C109.731 26.3845 109.875 26.8464 110.163 27.1338C110.47 27.4007 110.984 27.5341 111.702 27.5341H113.858V30.4595H111.086C109.506 30.4595 108.294 30.09 107.453 29.3509C106.611 28.6119 106.19 27.411 106.19 25.7482V16.3563H104.189V13.4926H106.19V9.27399H109.731V13.4926H113.858V16.3563H109.731Z" fill="#3B3B3B"/>
<path d="M99.3028 11.2447C98.6664 11.2447 98.1327 11.0291 97.7016 10.598C97.2705 10.1669 97.0549 9.63316 97.0549 8.99678C97.0549 8.36039 97.2705 7.82665 97.7016 7.39555C98.1327 6.96445 98.6664 6.7489 99.3028 6.7489C99.9187 6.7489 100.442 6.96445 100.873 7.39555C101.304 7.82665 101.52 8.36039 101.52 8.99678C101.52 9.63316 101.304 10.1669 100.873 10.598C100.442 11.0291 99.9187 11.2447 99.3028 11.2447ZM101.027 13.4925V30.4594H97.5168V13.4925H101.027Z" fill="#3B3B3B"/>
<path d="M86.0799 13.2154C87.4143 13.2154 88.605 13.4925 89.6519 14.0468C90.7194 14.6011 91.5508 15.4222 92.1461 16.5102C92.7415 17.5982 93.0391 18.9121 93.0391 20.4517V30.4594H89.5595V20.9752C89.5595 19.4561 89.1798 18.2962 88.4202 17.4956C87.6606 16.6745 86.624 16.2639 85.3101 16.2639C83.9963 16.2639 82.9493 16.6745 82.1693 17.4956C81.4097 18.2962 81.0299 19.4561 81.0299 20.9752V30.4594H77.5195V13.4925H81.0299V15.4325C81.6047 14.7345 82.3335 14.1905 83.2162 13.8005C84.1195 13.4104 85.074 13.2154 86.0799 13.2154Z" fill="#3B3B3B"/>
<path d="M74.0649 21.5603C74.0649 22.1966 74.0238 22.7714 73.9417 23.2847H60.9779C61.0806 24.6395 61.5835 25.7276 62.4868 26.5487C63.39 27.3698 64.4986 27.7804 65.8124 27.7804C67.701 27.7804 69.0354 26.9901 69.8155 25.4094H73.603C73.0898 26.9695 72.1557 28.2526 70.8008 29.2585C69.4665 30.2438 67.8037 30.7365 65.8124 30.7365C64.1906 30.7365 62.7331 30.3773 61.4398 29.6588C60.167 28.9197 59.1611 27.8933 58.4221 26.5795C57.7036 25.2451 57.3444 23.7055 57.3444 21.9606C57.3444 20.2156 57.6933 18.6863 58.3913 17.3724C59.1098 16.0381 60.1055 15.0116 61.3782 14.2931C62.6715 13.5746 64.1496 13.2154 65.8124 13.2154C67.4136 13.2154 68.8404 13.5644 70.0926 14.2623C71.3448 14.9603 72.3199 15.9457 73.0179 17.2185C73.7159 18.4707 74.0649 19.918 74.0649 21.5603ZM70.4005 20.4517C70.38 19.1584 69.9181 18.1217 69.0148 17.3416C68.1116 16.5615 66.9928 16.1715 65.6584 16.1715C64.4472 16.1715 63.4106 16.5615 62.5484 17.3416C61.6862 18.1012 61.1729 19.1379 61.0087 20.4517H70.4005Z" fill="#3B3B3B"/>
<path d="M47.1303 27.5958H54.8285V30.4595H43.0657V27.5958L50.7947 16.3564H43.0657V13.4927H54.8285V16.3564L47.1303 27.5958Z" fill="#3B3B3B"/>
</svg>
