<svg width="40" height="39" viewBox="0 0 40 39" fill="none" xmlns="http://www.w3.org/2000/svg">
<path fill-rule="evenodd" clip-rule="evenodd" d="M20.5944 18.6027C19.7419 14.2371 19.8362 10.0994 20.6864 6.93556C21.5331 3.78443 23.1506 1.53722 25.3918 1.08286C27.6331 0.628507 29.9716 2.07372 31.9376 4.65461C33.9116 7.24591 35.5531 11.0318 36.4056 15.3973C37.2581 19.7629 37.3502 24.3002 36.5 27.464C35.6532 30.6151 33.7412 32.5096 31.5 32.964C29.2588 33.4183 27.0284 31.9263 25.0624 29.3454C23.0884 26.7541 21.4469 22.9682 20.5944 18.6027ZM25.9388 3.88364C25.298 4.01354 24.1476 4.86852 23.3896 7.68968C22.6769 10.342 22.5572 14.0204 23.3432 18.0454C24.1291 22.0704 25.6216 25.4221 27.2764 27.5944C29.0366 29.9051 29.5 29.964 30.5 29.964C31.1408 29.8341 33.2419 29.7852 34 26.964C34.7127 24.3117 34.4428 19.9796 33.6568 15.9546C32.8709 11.9296 31.3784 8.57792 29.7236 6.40559C27.9634 4.09495 26.5795 3.75375 25.9388 3.88364Z" fill="white"/>
<path fill-rule="evenodd" clip-rule="evenodd" d="M5.52067 8.61302C4.72269 9.69635 4.49196 11.846 6.08132 15.1167C7.60917 18.2607 10.5576 21.782 14.6453 24.793C18.7329 27.804 22.9702 29.5757 26.4259 30.1026C30.0207 30.6507 32.0053 29.7929 32.8033 28.7096C33.6012 27.6262 33.832 25.4765 32.2426 22.2059C30.7148 19.0618 27.7663 15.5405 23.6786 12.5295C19.591 9.51856 15.3538 7.74684 11.8981 7.21999C8.30325 6.67192 6.31865 7.5297 5.52067 8.61302ZM12.9254 27.128C8.53741 23.8958 5.24465 20.03 3.47298 16.3842C1.70593 12.7479 1.43023 9.27635 3.18575 6.8931C4.94126 4.50985 8.33843 3.74377 12.3352 4.35311C16.3423 4.96404 21.0106 6.96243 25.3986 10.1946C29.7865 13.4268 33.0793 17.2926 34.8509 20.9384C36.618 24.5747 36.8937 28.0462 35.1382 30.4295C33.3827 32.8127 29.9855 33.5788 25.9888 32.9695C21.9816 32.3585 17.3133 30.3602 12.9254 27.128Z" fill="white"/>
<path fill-rule="evenodd" clip-rule="evenodd" d="M33.3924 31.8758L33.6442 32.1861C30.9301 34.5747 26.3863 36.4888 21.0949 37.2148C16.6167 37.8292 12.4281 37.4797 9.27376 36.4088C6.13206 35.3422 3.95452 33.5346 3.63311 31.192C3.44364 29.8111 3.92784 28.4326 4.91362 27.1549C5.89873 25.8782 7.3923 24.6909 9.25112 23.6791L9.39064 23.6031L9.4962 23.7219C10.0769 24.3749 10.7476 25.0268 11.4897 25.6657C14.5934 28.3378 18.9241 30.7644 23.0641 32.0811C25.1337 32.7393 27.1478 33.1175 28.9316 33.1143C30.7167 33.1111 32.255 32.7261 33.3924 31.8758Z" fill="#E5E5E5"/>
<path fill-rule="evenodd" clip-rule="evenodd" d="M33.6442 32.1847L33.6382 32.19L33.6318 32.1948C32.4018 33.1144 30.7683 33.5096 28.9323 33.5129C27.095 33.5163 25.0385 33.1274 22.9429 32.4609C18.7525 31.1282 14.3741 28.6755 11.2287 25.9675C10.4753 25.3188 9.79142 24.6545 9.19723 23.9863L9.02991 23.7981L9.25107 23.6777C9.63607 23.4682 10.037 23.266 10.4526 23.072C10.8921 22.8668 11.348 22.6708 11.819 22.4848C13.899 21.6636 16.275 21.0374 18.8274 20.6872C23.3056 20.0728 27.4942 20.4223 30.6485 21.4932C33.7902 22.5598 35.6785 24.1574 35.9999 26.5C36.2629 28.4164 35.52 30.5339 33.6442 32.1847ZM33.2506 27.1269C33.1719 26.5534 32.4562 25.3459 29.6625 24.3974C27.0476 23.5096 23.3531 23.162 19.2443 23.7257C17.5908 23.9526 16.0339 24.3049 14.6127 24.7497C16.8814 26.4428 19.6839 27.9992 22.5136 29.0656C24.6743 29.8799 26.7101 30.3539 28.4077 30.4339C30.064 30.512 30.8982 30.4105 31.4999 30C33.2506 28.8056 33.3127 27.5792 33.2506 27.1269Z" fill="white"/>
</svg>
