<svg width="72" height="71" viewBox="0 0 72 71" fill="none" xmlns="http://www.w3.org/2000/svg">
<path fill-rule="evenodd" clip-rule="evenodd" d="M36.5752 17.6027C35.7228 13.2371 35.8171 9.09939 36.6672 5.93556C37.514 2.78443 39.1315 0.537222 41.3727 0.0828644C43.6139 -0.371493 45.9524 1.07372 47.9185 3.65461C49.8924 6.24591 51.534 10.0318 52.3864 14.3973C53.2389 18.7629 53.331 23.3002 52.4808 26.464C51.6341 29.6151 49.7221 31.5096 47.4809 31.964C45.2397 32.4183 43.0093 30.9263 41.0432 28.3454C39.0692 25.7541 37.4277 21.9682 36.5752 17.6027ZM41.9196 2.88364C41.2788 3.01354 40.1285 3.86852 39.3704 6.68968C38.6577 9.34198 38.538 13.0204 39.324 17.0454C40.11 21.0704 41.6024 24.4221 43.2572 26.5944C45.0174 28.9051 45.4808 28.964 46.4808 28.964C47.1216 28.8341 49.2227 28.7852 49.9808 25.964C50.6935 23.3117 50.4236 18.9796 49.6377 14.9546C48.8517 10.9296 47.3593 7.57792 45.7045 5.40559C43.9443 3.09495 42.5603 2.75375 41.9196 2.88364Z" fill="#3B3B3B"/>
<path fill-rule="evenodd" clip-rule="evenodd" d="M21.5015 7.61302C20.7035 8.69634 20.4728 10.846 22.0622 14.1167C23.59 17.2607 26.5385 20.782 30.6261 23.793C34.7138 26.804 38.951 28.5757 42.4067 29.1026C46.0015 29.6507 47.9861 28.7929 48.7841 27.7096C49.5821 26.6262 49.8128 24.4765 48.2234 21.2059C46.6956 18.0618 43.7471 14.5405 39.6595 11.5295C35.5718 8.51856 31.3346 6.74684 27.8789 6.21998C24.2841 5.67191 22.2995 6.5297 21.5015 7.61302ZM28.9062 26.128C24.5182 22.8958 21.2255 19.03 19.4538 15.3842C17.6868 11.7479 17.4111 8.27635 19.1666 5.8931C20.9221 3.50985 24.3193 2.74377 28.316 3.35311C32.3231 3.96404 36.9914 5.96242 41.3794 9.19462C45.7674 12.4268 49.0601 16.2926 50.8318 19.9384C52.5988 23.5747 52.8745 27.0462 51.119 29.4295C49.3635 31.8127 45.9663 32.5788 41.9696 31.9695C37.9625 31.3585 33.2942 29.3601 28.9062 26.128Z" fill="#3B3B3B"/>
<path fill-rule="evenodd" clip-rule="evenodd" d="M49.3732 30.8758L49.6251 31.1861C46.911 33.5747 42.3671 35.4888 37.0757 36.2148C32.5975 36.8292 28.409 36.4797 25.2546 35.4088C22.1129 34.3422 19.9354 32.5346 19.6139 30.192C19.4245 28.8111 19.9087 27.4326 20.8945 26.1549C21.8796 24.8782 23.3731 23.6909 25.232 22.6791L25.3715 22.6031L25.477 22.7219C26.0577 23.3749 26.7285 24.0268 27.4706 24.6657C30.5743 27.3378 34.9049 29.7644 39.045 31.0811C41.1146 31.7393 43.1286 32.1175 44.9125 32.1143C46.6976 32.1111 48.2358 31.7261 49.3732 30.8758Z" fill="#E5E5E5"/>
<path fill-rule="evenodd" clip-rule="evenodd" d="M49.625 31.1847L49.619 31.19L49.6127 31.1948C48.3826 32.1144 46.7492 32.5097 44.9132 32.513C43.0759 32.5163 41.0193 32.1274 38.9237 31.4609C34.7333 30.1283 30.3549 27.6755 27.2095 24.9675C26.4561 24.3188 25.7723 23.6545 25.1781 22.9863L25.0107 22.7981L25.2319 22.6777C25.6169 22.4682 26.0178 22.266 26.4334 22.072C26.8729 21.8669 27.3288 21.6708 27.7999 21.4849C29.8798 20.6636 32.2558 20.0374 34.8082 19.6872C39.2864 19.0728 43.475 19.4223 46.6293 20.4932C49.771 21.5599 51.6594 23.1574 51.9808 25.5C52.2437 27.4164 51.5008 29.5339 49.625 31.1847ZM49.2315 26.1269C49.1528 25.5534 48.437 24.3459 45.6434 23.3974C43.0284 22.5096 39.3339 22.162 35.2251 22.7258C33.5716 22.9526 32.0147 23.3049 30.5935 23.7497C32.8622 25.4428 35.6647 26.9992 38.4944 28.0656C40.6551 28.8799 42.691 29.3539 44.3885 29.4339C46.0448 29.512 46.879 29.4106 47.4808 29C49.2315 27.8056 49.2935 26.5792 49.2315 26.1269Z" fill="#3B3B3B"/>
<path d="M66.6658 54.8394V64.2313C66.6658 64.8676 66.8095 65.3295 67.0969 65.6169C67.4048 65.8838 67.918 66.0172 68.6365 66.0172H70.792V68.9426H68.0206C66.4399 68.9426 65.2288 68.573 64.3871 67.834C63.5454 67.095 63.1246 65.8941 63.1246 64.2313V54.8394H61.123V51.9757H63.1246V47.7571H66.6658V51.9757H70.792V54.8394H66.6658Z" fill="#3B3B3B"/>
<path d="M56.2371 49.7278C55.6008 49.7278 55.067 49.5122 54.6359 49.0811C54.2048 48.65 53.9893 48.1163 53.9893 47.4799C53.9893 46.8435 54.2048 46.3097 54.6359 45.8786C55.067 45.4475 55.6008 45.232 56.2371 45.232C56.853 45.232 57.3765 45.4475 57.8076 45.8786C58.2387 46.3097 58.4542 46.8435 58.4542 47.4799C58.4542 48.1163 58.2387 48.65 57.8076 49.0811C57.3765 49.5122 56.853 49.7278 56.2371 49.7278ZM57.9615 51.9756V68.9425H54.4512V51.9756H57.9615Z" fill="#3B3B3B"/>
<path d="M43.0143 51.6985C44.3486 51.6985 45.5393 51.9756 46.5862 52.5299C47.6537 53.0842 48.4851 53.9053 49.0805 54.9933C49.6758 56.0813 49.9735 57.3952 49.9735 58.9348V68.9425H46.4939V59.4583C46.4939 57.9392 46.1141 56.7793 45.3545 55.9787C44.595 55.1575 43.5583 54.747 42.2444 54.747C40.9306 54.747 39.8837 55.1575 39.1036 55.9787C38.344 56.7793 37.9642 57.9392 37.9642 59.4583V68.9425H34.4539V51.9756H37.9642V53.9156C38.539 53.2176 39.2678 52.6736 40.1505 52.2835C41.0538 51.8935 42.0084 51.6985 43.0143 51.6985Z" fill="#3B3B3B"/>
<path d="M30.9992 60.0433C30.9992 60.6797 30.9581 61.2545 30.876 61.7677H17.9122C18.0149 63.1226 18.5178 64.2106 19.4211 65.0318C20.3243 65.8529 21.4329 66.2635 22.7467 66.2635C24.6353 66.2635 25.9697 65.4732 26.7498 63.8925H30.5373C30.0241 65.4526 29.09 66.7357 27.7352 67.7416C26.4008 68.7269 24.738 69.2196 22.7467 69.2196C21.125 69.2196 19.6674 68.8604 18.3741 68.1419C17.1014 67.4028 16.0955 66.3764 15.3564 65.0626C14.6379 63.7282 14.2787 62.1886 14.2787 60.4437C14.2787 58.6987 14.6277 57.1693 15.3256 55.8555C16.0441 54.5212 17.0398 53.4947 18.3126 52.7762C19.6058 52.0577 21.0839 51.6985 22.7467 51.6985C24.3479 51.6985 25.7747 52.0475 27.0269 52.7454C28.2792 53.4434 29.2543 54.4288 29.9522 55.7016C30.6502 56.9538 30.9992 58.4011 30.9992 60.0433ZM27.3349 58.9348C27.3143 57.6415 26.8524 56.6048 25.9492 55.8247C25.0459 55.0446 23.9271 54.6546 22.5928 54.6546C21.3816 54.6546 20.3449 55.0446 19.4827 55.8247C18.6205 56.5843 18.1073 57.621 17.943 58.9348H27.3349Z" fill="#3B3B3B"/>
<path d="M4.06466 66.0789H11.7629V68.9426H0V66.0789L7.72901 54.8395H0V51.9758H11.7629V54.8395L4.06466 66.0789Z" fill="#3B3B3B"/>
</svg>
