<svg width="115" height="37" viewBox="0 0 115 37" fill="none" xmlns="http://www.w3.org/2000/svg">
<path fill-rule="evenodd" clip-rule="evenodd" d="M18.5944 17.6027C17.7419 13.2371 17.8362 9.09939 18.6864 5.93556C19.5331 2.78443 21.1506 0.537222 23.3918 0.0828644C25.6331 -0.371493 27.9716 1.07372 29.9376 3.65461C31.9116 6.24591 33.5531 10.0318 34.4056 14.3973C35.2581 18.7629 35.3502 23.3002 34.5 26.464C33.6532 29.6151 31.7412 31.5096 29.5 31.964C27.2588 32.4183 25.0284 30.9263 23.0624 28.3454C21.0884 25.7541 19.4469 21.9682 18.5944 17.6027ZM23.9388 2.88364C23.298 3.01354 22.1476 3.86852 21.3896 6.68968C20.6769 9.34198 20.5572 13.0204 21.3432 17.0454C22.1291 21.0704 23.6216 24.4221 25.2764 26.5944C27.0366 28.9051 27.5 28.964 28.5 28.964C29.1408 28.8341 31.2419 28.7852 32 25.964C32.7127 23.3117 32.4428 18.9796 31.6568 14.9546C30.8709 10.9296 29.3784 7.57792 27.7236 5.40559C25.9634 3.09495 24.5795 2.75375 23.9388 2.88364Z" fill="white"/>
<path fill-rule="evenodd" clip-rule="evenodd" d="M3.52067 7.61302C2.72269 8.69634 2.49196 10.846 4.08132 14.1167C5.60917 17.2607 8.55764 20.782 12.6453 23.793C16.7329 26.804 20.9702 28.5757 24.4259 29.1026C28.0207 29.6507 30.0053 28.7929 30.8033 27.7096C31.6012 26.6262 31.832 24.4765 30.2426 21.2059C28.7148 18.0618 25.7663 14.5405 21.6786 11.5295C17.591 8.51856 13.3538 6.74684 9.89807 6.21998C6.30325 5.67191 4.31865 6.5297 3.52067 7.61302ZM10.9254 26.128C6.53741 22.8958 3.24465 19.03 1.47298 15.3842C-0.29407 11.7479 -0.569773 8.27635 1.18575 5.8931C2.94126 3.50985 6.33843 2.74377 10.3352 3.35311C14.3423 3.96404 19.0106 5.96242 23.3986 9.19462C27.7865 12.4268 31.0793 16.2926 32.8509 19.9384C34.618 23.5747 34.8937 27.0462 33.1382 29.4295C31.3827 31.8127 27.9855 32.5788 23.9888 31.9695C19.9816 31.3585 15.3133 29.3601 10.9254 26.128Z" fill="white"/>
<path fill-rule="evenodd" clip-rule="evenodd" d="M31.3924 30.8758L31.6442 31.1861C28.9301 33.5747 24.3863 35.4888 19.0949 36.2148C14.6167 36.8292 10.4281 36.4797 7.27376 35.4088C4.13206 34.3422 1.95452 32.5346 1.63311 30.192C1.44364 28.8111 1.92784 27.4326 2.91362 26.1549C3.89873 24.8782 5.3923 23.6909 7.25112 22.6791L7.39064 22.6031L7.4962 22.7219C8.07686 23.3749 8.74763 24.0268 9.48972 24.6657C12.5934 27.3378 16.9241 29.7644 21.0641 31.0811C23.1337 31.7393 25.1478 32.1175 26.9316 32.1143C28.7167 32.1111 30.255 31.7261 31.3924 30.8758Z" fill="#E5E5E5"/>
<path fill-rule="evenodd" clip-rule="evenodd" d="M31.6442 31.1847L31.6382 31.19L31.6318 31.1948C30.4018 32.1144 28.7683 32.5096 26.9323 32.5129C25.095 32.5163 23.0385 32.1274 20.9429 31.4609C16.7525 30.1282 12.3741 27.6755 9.22871 24.9675C8.47527 24.3188 7.79142 23.6545 7.19723 22.9863L7.02991 22.7981L7.25107 22.6777C7.63607 22.4682 8.03698 22.266 8.45261 22.072C8.89206 21.8668 9.348 21.6708 9.81904 21.4848C11.899 20.6636 14.275 20.0374 16.8274 19.6872C21.3056 19.0728 25.4942 19.4223 28.6485 20.4932C31.7902 21.5598 33.6785 23.1574 33.9999 25.5C34.2629 27.4164 33.52 29.5339 31.6442 31.1847ZM31.2506 26.1269C31.1719 25.5534 30.4562 24.3459 27.6625 23.3974C25.0476 22.5096 21.3531 22.162 17.2443 22.7257C15.5908 22.9526 14.0339 23.3049 12.6127 23.7497C14.8814 25.4428 17.6839 26.9992 20.5136 28.0656C22.6743 28.8799 24.7101 29.3539 26.4077 29.4339C28.064 29.512 28.8982 29.4105 29.4999 29C31.2506 27.8056 31.3127 26.5792 31.2506 26.1269Z" fill="white"/>
<path d="M109.731 16.0905V25.4824C109.731 26.1187 109.875 26.5806 110.163 26.868C110.47 27.1349 110.984 27.2683 111.702 27.2683H113.858V30.1937H111.086C109.506 30.1937 108.294 29.8241 107.453 29.0851C106.611 28.3461 106.19 27.1452 106.19 25.4824V16.0905H104.189V13.2268H106.19V9.00818H109.731V13.2268H113.858V16.0905H109.731Z" fill="white"/>
<path d="M99.3028 10.9789C98.6664 10.9789 98.1327 10.7633 97.7016 10.3322C97.2705 9.90111 97.0549 9.36737 97.0549 8.73099C97.0549 8.0946 97.2705 7.56086 97.7016 7.12976C98.1327 6.69866 98.6664 6.48311 99.3028 6.48311C99.9187 6.48311 100.442 6.69866 100.873 7.12976C101.304 7.56086 101.52 8.0946 101.52 8.73099C101.52 9.36737 101.304 9.90111 100.873 10.3322C100.442 10.7633 99.9187 10.9789 99.3028 10.9789ZM101.027 13.2267V30.1936H97.5168V13.2267H101.027Z" fill="white"/>
<path d="M86.0799 12.9496C87.4143 12.9496 88.605 13.2267 89.6519 13.781C90.7194 14.3353 91.5508 15.1564 92.1461 16.2444C92.7415 17.3325 93.0391 18.6463 93.0391 20.1859V30.1936H89.5595V20.7094C89.5595 19.1903 89.1798 18.0304 88.4202 17.2298C87.6606 16.4087 86.624 15.9981 85.3101 15.9981C83.9963 15.9981 82.9493 16.4087 82.1693 17.2298C81.4097 18.0304 81.0299 19.1903 81.0299 20.7094V30.1936H77.5195V13.2267H81.0299V15.1667C81.6047 14.4687 82.3335 13.9247 83.2162 13.5347C84.1195 13.1446 85.074 12.9496 86.0799 12.9496Z" fill="white"/>
<path d="M74.0649 21.2945C74.0649 21.9309 74.0238 22.5057 73.9417 23.0189H60.9779C61.0806 24.3738 61.5835 25.4618 62.4868 26.2829C63.39 27.1041 64.4986 27.5146 65.8124 27.5146C67.701 27.5146 69.0354 26.7243 69.8155 25.1436H73.603C73.0898 26.7037 72.1557 27.9868 70.8008 28.9927C69.4665 29.9781 67.8037 30.4707 65.8124 30.4707C64.1906 30.4707 62.7331 30.1115 61.4398 29.393C60.167 28.654 59.1611 27.6275 58.4221 26.3137C57.7036 24.9793 57.3444 23.4397 57.3444 21.6948C57.3444 19.9498 57.6933 18.4205 58.3913 17.1066C59.1098 15.7723 60.1055 14.7459 61.3782 14.0274C62.6715 13.3089 64.1496 12.9496 65.8124 12.9496C67.4136 12.9496 68.8404 13.2986 70.0926 13.9966C71.3448 14.6945 72.3199 15.6799 73.0179 16.9527C73.7159 18.2049 74.0649 19.6522 74.0649 21.2945ZM70.4005 20.1859C70.38 18.8926 69.9181 17.8559 69.0148 17.0758C68.1116 16.2958 66.9928 15.9057 65.6584 15.9057C64.4472 15.9057 63.4106 16.2958 62.5484 17.0758C61.6862 17.8354 61.1729 18.8721 61.0087 20.1859H70.4005Z" fill="white"/>
<path d="M47.1303 27.33H54.8285V30.1937H43.0657V27.33L50.7947 16.0906H43.0657V13.2269H54.8285V16.0906L47.1303 27.33Z" fill="white"/>
</svg>
